<?xml version="1.0" encoding="UTF-8" standalone="no"?>
<svg
   xmlns:dc="http://purl.org/dc/elements/1.1/"
   xmlns:cc="http://creativecommons.org/ns#"
   xmlns:rdf="http://www.w3.org/1999/02/22-rdf-syntax-ns#"
   xmlns:svg="http://www.w3.org/2000/svg"
   xmlns="http://www.w3.org/2000/svg"
   xmlns:sodipodi="http://sodipodi.sourceforge.net/DTD/sodipodi-0.dtd"
   xmlns:inkscape="http://www.inkscape.org/namespaces/inkscape"
   id="Capa_1"
   enable-background="new 0 0 512 512"
   height="512"
   viewBox="0 0 512 512"
   width="512"
   version="1.1"
   sodipodi:docname="pyreports.svg"
   inkscape:version="1.0.2 (e86c870879, 2021-01-15)">
  <metadata
     id="metadata37">
    <rdf:RDF>
      <cc:Work
         rdf:about="">
        <dc:format>image/svg+xml</dc:format>
        <dc:type
           rdf:resource="http://purl.org/dc/dcmitype/StillImage" />
        <dc:title></dc:title>
      </cc:Work>
    </rdf:RDF>
  </metadata>
  <defs
     id="defs35" />
  <sodipodi:namedview
     pagecolor="#ffffff"
     bordercolor="#666666"
     borderopacity="1"
     objecttolerance="10"
     gridtolerance="10"
     guidetolerance="10"
     inkscape:pageopacity="0"
     inkscape:pageshadow="2"
     inkscape:window-width="1920"
     inkscape:window-height="1012"
     id="namedview33"
     showgrid="false"
     inkscape:zoom="1.5566406"
     inkscape:cx="310.3474"
     inkscape:cy="247.33113"
     inkscape:window-x="0"
     inkscape:window-y="0"
     inkscape:window-maximized="1"
     inkscape:current-layer="Capa_1" />
  <g
     id="g30">
    <path
       d="m265.771 122.305h96.966c3.853 0 6.976-3.123 6.976-6.976s-3.123-6.976-6.976-6.976h-96.966c-3.853 0-6.976 3.123-6.976 6.976s3.124 6.976 6.976 6.976z"
       id="path2" />
    <path
       d="m258.795 147.964c0 3.853 3.123 6.976 6.976 6.976h96.966c3.853 0 6.976-3.123 6.976-6.976 0-3.853-3.123-6.976-6.976-6.976h-96.966c-3.852 0-6.976 3.123-6.976 6.976z"
       id="path4" />
    <path
       d="m265.771 187.575h96.966c3.853 0 6.976-3.123 6.976-6.976s-3.123-6.976-6.976-6.976h-96.966c-3.853 0-6.976 3.123-6.976 6.976 0 3.852 3.124 6.976 6.976 6.976z"
       id="path6" />
    <path
       d="m369.714 362.729c0-3.853-3.123-6.976-6.976-6.976h-90.141c-3.853 0-6.976 3.123-6.976 6.976 0 3.853 3.123 6.976 6.976 6.976h90.141c3.852 0 6.976-3.123 6.976-6.976z"
       id="path8" />
    <path
       d="m218.496 294.655c0-3.853-3.123-6.976-6.976-6.976h-96.966c-3.853 0-6.976 3.123-6.976 6.976s3.123 6.976 6.976 6.976h96.966c3.852.001 6.976-3.123 6.976-6.976z"
       id="path10" />
    <path
       d="m114.554 268.997h96.966c3.853 0 6.976-3.123 6.976-6.976s-3.123-6.976-6.976-6.976h-96.966c-3.853 0-6.976 3.123-6.976 6.976-.001 3.853 3.123 6.976 6.976 6.976z"
       id="path12" />
    <path
       d="m172.382 72.694c-39.867 0-72.301 32.434-72.301 72.301s32.434 72.301 72.301 72.301 72.301-32.434 72.301-72.301-32.433-72.301-72.301-72.301zm0 129.603c-31.596 0-57.301-25.705-57.301-57.301 0-29.054 21.736-53.127 49.801-56.813v56.813c0 4.142 3.358 7.5 7.5 7.5h56.813c-3.685 28.065-27.758 49.801-56.813 49.801zm7.5-64.801v-49.313c25.61 3.363 45.95 23.703 49.313 49.313z"
       id="path14" />
    <path
       d="m236.417 244.853v66.972c0 6.7 5.451 12.151 12.151 12.151h116.495c6.7 0 12.151-5.451 12.151-12.151v-66.972c0-6.7-5.451-12.151-12.151-12.151h-116.496c-6.7 0-12.15 5.45-12.15 12.151zm15 2.849h110.797v61.273h-110.797z"
       id="path16" />
    <path
       d="m100.078 449.967c0 6.7 5.451 12.151 12.15 12.151h20.379c6.7 0 12.151-5.451 12.151-12.151v-101.735c0-6.7-5.451-12.15-12.151-12.15h-20.379c-6.7 0-12.15 5.451-12.15 12.15zm15-98.885h14.68v96.036h-14.68z"
       id="path18" />
    <path
       d="m167.599 362.775c-6.7 0-12.151 5.451-12.151 12.15v75.042c0 6.7 5.451 12.151 12.151 12.151h20.378c6.7 0 12.151-5.451 12.151-12.151v-75.042c0-6.7-5.451-12.15-12.151-12.15zm17.529 84.343h-14.68v-69.343h14.68z"
       id="path20" />
    <path
       d="m222.969 462.118h20.379c6.7 0 12.151-5.451 12.151-12.151v-41.785c0-6.7-5.451-12.151-12.151-12.151h-20.379c-6.7 0-12.151 5.451-12.151 12.151v41.785c0 6.7 5.451 12.151 12.151 12.151zm2.849-51.087h14.681v36.086h-14.681z"
       id="path22" />
    <path
       d="m362.737 390.03h-90.141c-3.853 0-6.976 3.123-6.976 6.976s3.123 6.976 6.976 6.976h90.141c3.853 0 6.976-3.123 6.976-6.976.001-3.853-3.123-6.976-6.976-6.976z"
       id="path24" />
    <path
       d="m362.737 424.307h-90.141c-3.853 0-6.976 3.123-6.976 6.976s3.123 6.976 6.976 6.976h90.141c3.853 0 6.976-3.123 6.976-6.976s-3.123-6.976-6.976-6.976z"
       id="path26" />
    <path
       d="m 441.2697,113.02443 c 4.142,0 7.49979,11.58218 7.50044,7.44018 L 448.785,25.138 C 448.78716,11.277 437.508,0 423.647,0 H 123.062 C 109.201,0 97.924,11.277 97.924,25.138 v 9.571 h -9.571 c -13.861,0 -25.139452,11.277 -25.138,25.138 l 0.03726,355.62543 c 4.34e-4,4.142 3.082965,-6.73263 7.224965,-6.73263 4.142,0 7.682165,11.97078 7.678329,7.82878 L 77.825515,60.277741 C 77.820336,54.687743 82.763,49.709 88.353,49.709 h 300.585 c 5.59,0 10.138,4.548 10.138,10.138 v 427.015 c 0,5.59 -4.548,10.138 -10.138,10.138 H 88.353 c -5.59,0 -10.138,-4.548 -10.138,-10.138 v -70.698 c 0,-4.142 -3.358,-7.5 -7.5,-7.5 -4.142,0 -7.5,3.358 -7.5,7.5 v 70.698 c 0,13.861 11.277,25.138 25.138,25.138 h 300.585 c 13.861,0 25.138,-11.277 25.138,-25.138 v -9.571 h 9.571 c 13.861,0 25.138,-11.277 25.138,-25.138 V 120.489 c 0,-4.142 -3.358,-7.5 -7.5,-7.5 -4.142,0 -7.5,3.358 -7.5,7.5 v 331.664 c 0,5.59 -4.548,10.138 -10.138,10.138 h -9.571 V 59.847 c 0,-13.861 -11.277,-25.138 -25.138,-25.138 H 112.924 v -9.571 c 0,-5.59 4.548,-10.138 10.138,-10.138 h 300.585 c 5.59,0 10.13674,4.548 10.138,10.138 l 0.0215,95.38761 c 9.4e-4,4.142 3.32119,-7.50118 7.46319,-7.50118 z"
       id="path28"
       sodipodi:nodetypes="sssssscsssssssssssssssssssscssssssscsscssssss" />
  </g>
  <path
     style="fill:#306998;fill-opacity:1;stroke-width:0.227126"
     d=""
     id="path886" />
  <path
     style="fill:#306998;fill-opacity:1;stroke-width:0.160602"
     d="M 179.88778,112.87798 V 88.287325 l 0.92347,0.112042 c 0.5079,0.06162 1.95153,0.324295 3.20806,0.583718 15.06376,3.110041 28.39405,12.372565 36.74581,25.532745 3.16855,4.9928 5.65782,10.79797 7.12198,16.60901 0.51001,2.02414 1.14497,5.33513 1.14497,5.97037 v 0.37342 h -24.57214 -24.57215 z"
     id="path892" />
  <path
     style="fill:#ffd43b;fill-opacity:1;stroke-width:0.160602"
     d="m 168.4668,202.09728 c -0.30916,-0.0349 -1.35709,-0.14262 -2.32873,-0.23939 -7.16761,-0.71388 -15.24469,-3.29222 -21.6505,-6.9112 -22.56315,-12.74712 -33.78715,-38.59399 -27.65006,-63.67313 4.97207,-20.31825 21.02976,-36.48664 41.43105,-41.716641 2.13896,-0.548336 5.58563,-1.232584 6.20873,-1.232584 0.27913,0 0.29225,1.145718 0.33327,29.109155 l 0.0427,29.10916 0.38647,0.96362 c 1.05587,2.6327 3.01851,4.34235 5.60387,4.88149 0.60294,0.12574 9.22358,0.17748 29.56872,0.17748 h 28.71766 l -0.22011,1.37453 c -1.56915,9.79917 -5.55154,18.78616 -11.84518,26.73086 -1.94585,2.45633 -6.46033,6.99473 -8.84882,8.89572 -8.45227,6.72712 -18.16372,10.84803 -28.8281,12.23278 -1.88962,0.24537 -9.53849,0.45419 -10.92096,0.29815 z"
     id="path894" />
  <path
     style="fill:#4b8bbe;fill-opacity:1;stroke-width:0.160602"
     d="m 251.51307,278.36245 v -30.51442 h 55.32748 55.32748 v 30.51442 30.51443 h -55.32748 -55.32748 z"
     id="path896" />
  <path
     style="fill:#4b8bbe;fill-opacity:1;stroke-width:0.113563"
     d="m 225.86017,429.07349 v -17.99973 h 7.26803 7.26803 v 17.99973 17.99972 h -7.26803 -7.26803 z"
     id="path898" />
  <path
     style="fill:#306998;fill-opacity:1;stroke-width:0.113563"
     d="m 170.55502,412.43652 v -34.6367 h 7.26802 7.26803 v 34.6367 34.63669 h -7.26803 -7.26802 z"
     id="path900" />
  <path
     style="fill:#646464;fill-opacity:1;stroke-width:0.113563"
     d="m 115.16937,399.09287 v -47.98035 h 7.26803 7.26803 v 47.98035 47.98034 h -7.26803 -7.26803 z"
     id="path902" />
  <path
     style="fill:#ffe873;fill-opacity:1;stroke-width:0.642409"
     d="m 83.923517,495.47137 c -2.447625,-1.51477 -3.911158,-3.16697 -4.742705,-5.3541 -0.441598,-1.16149 -0.68768,-72.2944 -0.751814,-217.32012 l -0.09534,-215.593463 1.416964,-2.06139 c 0.779331,-1.133765 2.181592,-2.639559 3.116135,-3.346208 1.68674,-1.275419 2.822796,-1.286022 155.294703,-1.449346 l 153.59554,-0.164527 2.12958,1.449345 c 1.17127,0.79714 2.73434,2.265525 3.47348,3.263079 l 1.34388,1.813733 V 272.99251 c 0,215.12876 -0.007,216.29578 -1.28481,218.46541 -0.70665,1.19971 -2.10099,2.78967 -3.09852,3.53325 l -1.8137,1.35197 -153.32808,0.16047 C 90.765701,496.65894 85.788966,496.62585 83.923517,495.47137 Z m 54.660213,-34.68052 c 3.17163,-1.81788 5.85884,-5.75599 6.37598,-9.34405 0.20943,-1.45306 0.29345,-26.05774 0.18672,-54.67706 -0.17551,-47.06145 -0.29603,-52.21934 -1.26092,-53.96236 -1.4098,-2.54673 -4.28086,-5.21478 -6.52326,-6.06201 -2.78145,-1.05091 -27.5882,-0.89915 -30.18208,0.18464 -2.79126,1.16626 -6.02528,4.96938 -6.85917,8.06617 -0.459754,1.70742 -0.62477,19.6788 -0.508835,55.41622 0.162896,50.21309 0.232475,53.01187 1.374995,55.31102 0.66188,1.33193 2.07407,3.04165 3.13821,3.79938 3.92426,2.79432 5.88547,3.09502 19.1063,2.9295 11.80997,-0.14786 12.67723,-0.24296 15.15206,-1.66145 z m 55.29824,0.0737 c 3.10191,-1.65854 4.90229,-3.94332 5.95941,-7.56286 0.54648,-1.87111 0.69716,-13.40971 0.55433,-42.44648 l -0.19616,-39.87686 -1.72338,-2.60362 c -0.94786,-1.43199 -2.8269,-3.28967 -4.17565,-4.12817 -2.38247,-1.48114 -2.84551,-1.52454 -16.26408,-1.52454 -12.75457,0 -14.00849,0.10263 -16.38143,1.3407 -2.92455,1.52588 -5.15829,4.46628 -6.12764,8.06618 -0.43342,1.60959 -0.60046,16.15015 -0.48044,41.82016 0.20256,43.32401 -0.0169,40.98814 4.22987,45.02452 3.42744,3.25764 5.62248,3.6512 19.40205,3.47868 11.55651,-0.14469 12.73429,-0.26769 15.20312,-1.58771 z m 52.57103,1.043 c 3.59521,-0.98205 6.67524,-3.49762 8.08593,-6.60405 1.10255,-2.42788 1.20079,-4.56254 1.20079,-26.09214 0,-21.44023 -0.10155,-23.66796 -1.18597,-26.01757 -1.4353,-3.10989 -3.46902,-5.06707 -6.64346,-6.39343 -1.87481,-0.78335 -5.06664,-0.99427 -15.04563,-0.99427 -14.93537,0 -16.9726,0.57241 -20.21099,5.67882 l -1.85437,2.92404 v 24.3064 c 0,26.49866 0.0387,26.81472 3.70291,30.25823 3.28078,3.08315 5.79773,3.58425 18.139,3.61127 6.2193,0.0136 12.39024,-0.289 13.81179,-0.6773 z m 117.82857,-23.68713 c 4.7134,-1.35179 6.79602,-5.46586 4.97418,-9.82616 -1.90631,-4.56245 0.55665,-4.36627 -52.39896,-4.17369 l -47.49521,0.17272 -1.64772,1.54816 c -1.77094,1.66394 -2.6847,4.90075 -2.07231,7.34073 0.52941,2.10931 3.38685,4.79671 5.43333,5.10998 3.84812,0.58907 91.11455,0.42828 93.20669,-0.17174 z m 2.00174,-35.03751 c 2.03011,-1.0498 3.83343,-3.9156 3.83343,-6.09201 0,-1.88567 -1.65094,-4.8729 -3.35131,-6.06389 -1.26598,-0.88672 -6.95414,-1.00261 -49.21221,-1.00261 h -47.78077 l -2.26578,2.26579 c -2.10071,2.10071 -2.24104,2.48531 -1.92614,5.27903 0.26124,2.31775 0.80138,3.42583 2.34015,4.80072 l 2.00052,1.78746 h 47.23884 c 40.96788,0 47.48898,-0.12936 49.12327,-0.97449 z m -0.32835,-34.08644 c 2.09475,-0.99402 4.16178,-4.16002 4.16178,-6.37445 0,-2.21443 -2.06703,-5.38043 -4.16178,-6.37445 -1.88277,-0.89343 -7.57704,-1.01325 -48.15167,-1.01325 -50.42546,0 -49.40361,-0.075 -51.39294,3.77194 -1.27678,2.46902 -1.27713,4.76183 -10e-4,7.2294 1.96844,3.80655 0.80487,3.72144 51.25406,3.74892 40.73661,0.0222 46.40709,-0.0938 48.29164,-0.98811 z m 4.48299,-45.98585 c 2.51085,-1.38995 5.16479,-4.22429 6.21929,-6.64205 1.0934,-2.50693 1.5934,-67.75464 0.56198,-73.33414 -0.7972,-4.31244 -3.00526,-7.45291 -6.49012,-9.23075 -2.48312,-1.2668 -3.56395,-1.28545 -64.78663,-1.11828 l -62.26138,0.17 -2.46849,1.96849 c -1.35768,1.08267 -3.04667,3.10626 -3.75332,4.49686 -1.24023,2.44061 -1.28482,3.79944 -1.28482,39.14569 0,33.24407 0.10054,36.80086 1.0914,38.60978 1.45102,2.64899 5.25254,5.92545 7.4323,6.40576 0.96516,0.21267 2.04393,0.48682 2.39725,0.60923 0.35333,0.1224 27.81631,0.16938 61.02886,0.10441 54.9345,-0.10748 60.56045,-0.21446 62.31368,-1.185 z m -155.79129,-22.0562 c 2.62738,-1.35867 3.86155,-3.41301 3.86155,-6.42776 0,-3.01475 -1.23417,-5.06909 -3.86155,-6.42776 -2.71484,-1.4039 -99.72413,-1.44807 -103.07752,-0.047 -5.20654,2.17544 -5.51344,10.13423 -0.49577,12.85679 2.65728,1.44182 100.78975,1.48509 103.57329,0.0457 z m 1.67736,-33.9871 c 1.8613,-1.8613 2.18419,-2.62836 2.18419,-5.18869 0,-3.92289 -2.32972,-6.4605 -6.48025,-7.05848 -1.55908,-0.22462 -24.66053,-0.32165 -51.33656,-0.21562 -45.45012,0.18064 -48.60895,0.26548 -50.20354,1.34831 -4.44486,3.01833 -3.80365,10.70101 1.05925,12.69136 0.70665,0.28922 24.07909,0.54419 51.93877,0.56658 l 50.65395,0.0407 z m -37.38526,-49.86039 c 30.86764,-3.00149 55.96371,-24.44489 63.76764,-54.48641 2.19025,-8.43142 2.71767,-21.08717 1.2334,-29.59624 -5.34549,-30.64499 -28.78965,-54.294977 -59.0484,-59.56681 -8.78574,-1.530697 -23.11528,-0.918471 -31.24401,1.334891 -26.52516,7.35303 -46.76041,28.790439 -52.34434,55.454059 -5.449398,26.02122 4.44825,54.05952 24.89195,70.51457 13.39956,10.78526 25.97173,15.46167 45.41735,16.89369 0.52999,0.039 3.82687,-0.20746 7.32641,-0.54775 z m 188.62486,-31.38629 c 3.30026,-3.30026 3.30026,-7.1429 0,-10.44316 l -1.84491,-1.84492 h -51.3555 c -50.51558,0 -51.38243,0.0212 -53.00166,1.29487 -3.59894,2.83092 -3.59894,8.71234 0,11.54326 1.61923,1.27369 2.48608,1.29487 53.00166,1.29487 h 51.3555 z m -3.28205,-30.9026 c 6.37409,-1.82807 7.7915,-9.62078 2.35312,-12.9371 -1.89122,-1.15326 -4.2011,-1.20644 -52.40753,-1.20644 -48.85362,0 -50.49325,0.0391 -52.48195,1.25169 -5.16262,3.14785 -3.84238,11.06431 2.14441,12.85839 2.61509,0.78367 97.66566,0.81535 100.39195,0.0335 z m 3.21555,-34.33615 c 2.45077,-2.34822 3.0409,-5.18396 1.73114,-8.31866 -1.84646,-4.4192 0.25898,-4.25639 -55.04399,-4.25639 -43.79223,0 -49.79775,0.11773 -51.68492,1.01325 -2.66899,1.26652 -4.43469,4.7183 -3.89235,7.6092 0.37753,2.01244 2.9118,4.98228 4.86984,5.70683 0.52999,0.19611 23.71009,0.30445 51.51134,0.24075 l 50.54772,-0.11583 z"
     id="path928" />
  <path
     style="fill:#ffd43b;fill-opacity:1;stroke-width:0.642409"
     d="M 414.26201,258.16789 C 414.09839,56.347034 414.08163,53.930161 412.82515,50.891556 410.17252,44.476627 404.31357,38.617674 397.89864,35.965049 394.87134,34.713234 392.6633,34.691166 253.91603,34.526038 l -140.90815,-0.167701 0.22057,-6.25639 c 0.25762,-7.306851 1.49415,-9.759142 5.93871,-11.777616 2.54379,-1.155251 7.78128,-1.19633 154.26621,-1.20996 l 151.63301,-0.01411 2.86636,1.445421 c 2.09396,1.055923 3.25586,2.217816 4.31178,4.311778 l 1.44542,2.866359 V 238.69369 453.66355 l -1.49281,2.82295 c -2.18948,4.14036 -4.64348,5.30918 -11.80448,5.62238 l -5.96509,0.26089 z"
     id="path930" />
</svg>
